<svg xmlns="http://www.w3.org/2000/svg" version="1.1" xmlns:xlink="http://www.w3.org/1999/xlink" xmlns:svgjs="http://svgjs.dev/svgjs" width="1500" height="234" viewBox="0 0 1500 234"><g transform="matrix(1,0,0,1,-0.9090909090909918,-0.3110159320386856)"><svg viewBox="0 0 396 62" data-background-color="#ffffff" preserveAspectRatio="xMidYMid meet" height="234" width="1500" xmlns="http://www.w3.org/2000/svg" xmlns:xlink="http://www.w3.org/1999/xlink"><g id="tight-bounds" transform="matrix(1,0,0,1,0.2400000000000091,0.08240593071110425)"><svg viewBox="0 0 395.52 61.835188138577806" height="61.835188138577806" width="395.52"><g><svg viewBox="0 0 541.9261708579475 84.72417761989341" height="61.835188138577806" width="395.52"><g><rect width="7.602501266779395" height="84.72417761989341" x="118.90183381425865" y="0" fill="#336a86" opacity="1" stroke-width="0" stroke="transparent" fill-opacity="1" class="rect-yte-0" data-fill-palette-color="primary" rx="1%" id="yte-0" data-palette-color="#336a86"></rect></g><g transform="matrix(1,0,0,1,146.40617085794747,0.21075666074600008)"><svg viewBox="0 0 395.52 84.30266429840141" height="84.30266429840141" width="395.52"><g id="textblocktransform"><svg viewBox="0 0 395.52 84.30266429840141" height="84.30266429840141" width="395.52" id="textblock"><g><svg viewBox="0 0 395.52 84.30266429840141" height="84.30266429840141" width="395.52"><g transform="matrix(1,0,0,1,0,0)"><svg width="395.52" viewBox="0.85 -35.75 168.89000000000001 36" height="84.30266429840141" data-palette-color="#336a86"><path d="M29.65-35.5L29.65-32.4 17-32.4 17 0 13.5 0 13.5-32.4 0.85-32.4 0.85-35.5 29.65-35.5ZM59.5-35.5L62.95-35.5 62.95 0 59.5 0 59.5-16.6 38.45-16.6 38.45 0 34.95 0 34.95-35.5 38.45-35.5 38.45-19.7 59.5-19.7 59.5-35.5ZM86.14 0.25L86.14 0.25Q82.39 0.25 79.34-1.25 76.3-2.75 74.09-5.33 71.89-7.9 70.69-11.13 69.49-14.35 69.49-17.75L69.49-17.75Q69.49-21.3 70.74-24.53 71.99-27.75 74.27-30.28 76.55-32.8 79.59-34.27 82.64-35.75 86.19-35.75L86.19-35.75Q89.94-35.75 93-34.2 96.05-32.65 98.22-30.05 100.39-27.45 101.59-24.25 102.79-21.05 102.79-17.7L102.79-17.7Q102.79-14.15 101.54-10.93 100.29-7.7 98.05-5.18 95.8-2.65 92.75-1.2 89.69 0.25 86.14 0.25ZM72.99-17.75L72.99-17.75Q72.99-14.85 73.94-12.18 74.89-9.5 76.64-7.43 78.39-5.35 80.82-4.13 83.25-2.9 86.14-2.9L86.14-2.9Q89.19-2.9 91.62-4.17 94.05-5.45 95.77-7.58 97.5-9.7 98.39-12.35 99.3-15 99.3-17.75L99.3-17.75Q99.3-20.65 98.34-23.3 97.39-25.95 95.62-28.05 93.84-30.15 91.44-31.35 89.05-32.55 86.14-32.55L86.14-32.55Q83.14-32.55 80.72-31.3 78.3-30.05 76.57-27.93 74.84-25.8 73.92-23.15 72.99-20.5 72.99-17.75ZM121.44 0L109.39 0 109.39-35.5 121.44-35.5Q127.09-35.5 130.87-33.13 134.64-30.75 136.54-26.73 138.44-22.7 138.44-17.8L138.44-17.8Q138.44-12.4 136.37-8.4 134.29-4.4 130.47-2.2 126.64 0 121.44 0L121.44 0ZM134.94-17.8L134.94-17.8Q134.94-22.05 133.37-25.35 131.79-28.65 128.79-30.53 125.79-32.4 121.44-32.4L121.44-32.4 112.89-32.4 112.89-3.1 121.44-3.1Q125.84-3.1 128.84-5.05 131.84-7 133.39-10.33 134.94-13.65 134.94-17.8ZM141.54 0L141.54-2.75 165.69-32.4 141.94-32.4 141.94-35.5 169.74-35.5 169.74-32.75 145.89-3.1 169.69-3.1 169.69 0 141.54 0Z" opacity="1" transform="matrix(1,0,0,1,0,0)" fill="#336a86" class="wordmark-text-0" data-fill-palette-color="primary" id="text-0"></path></svg></g></svg></g></svg></g></svg></g><g transform="matrix(1,0,0,1,0,0.21075666074600008)"><svg viewBox="0 0 98.99999803734924 84.30266429840141" height="84.30266429840141" width="98.99999803734924"><g><svg xmlns="http://www.w3.org/2000/svg" xmlns:xlink="http://www.w3.org/1999/xlink" version="1.1" x="0" y="0" viewBox="32.3 46.5 191.3 162.9" style="enable-background:new 0 0 256 256;" xml:space="preserve" height="84.30266429840141" width="98.99999803734924" class="icon-icon-0" data-fill-palette-color="accent" id="icon-0"><g fill="#336a86" data-fill-palette-color="accent"><path d="M84.5 82.1C93.5 82.1 100.9 75.4 102.1 66.7H132.5L145.5 85.5C146 86.2 146.7 86.5 147.5 86.5H221.2C222.5 86.5 223.6 85.4 223.6 84.1S222.5 81.7 221.2 81.7H148.7L135.7 62.9C135.2 62.2 134.5 61.9 133.7 61.9H102C100.8 53.2 93.4 46.5 84.4 46.5 74.6 46.5 66.6 54.5 66.6 64.3S74.7 82.1 84.5 82.1M84.5 51.4C91.6 51.4 97.4 57.2 97.4 64.3S91.6 77.2 84.5 77.2 71.6 71.4 71.6 64.3 77.3 51.4 84.5 51.4" fill="#336a86" data-fill-palette-color="accent"></path><path d="M221.2 109.5H144.5C143.3 100.8 135.9 94.1 126.9 94.1 117.1 94.1 109.1 102.1 109.1 111.9S117.1 129.7 126.9 129.7C135.9 129.7 143.3 123 144.5 114.3H221.2C222.5 114.3 223.6 113.2 223.6 111.9S222.5 109.5 221.2 109.5M126.9 124.9C119.8 124.9 114 119.1 114 112S119.8 99 126.9 99 139.8 104.8 139.8 111.9C139.8 119.1 134 124.9 126.9 124.9" fill="#336a86" data-fill-palette-color="accent"></path><path d="M221.2 140.3H154.3C153.5 140.3 152.7 140.7 152.2 141.4L142.8 156.4H101.6L91.4 137.4C91 136.6 90.2 136.1 89.3 136.1H67.7C66.5 127.4 59.1 120.7 50.1 120.7 40.3 120.7 32.3 128.7 32.3 138.5S40.3 156.3 50.1 156.3C59.1 156.3 66.5 149.6 67.7 140.9H87.8L98 159.9C98.4 160.7 99.2 161.2 100.1 161.2H144.1C144.9 161.2 145.7 160.8 146.2 160.1L155.6 145.1H221.1C222.4 145.1 223.5 144 223.5 142.7 223.6 141.4 222.5 140.3 221.2 140.3M50.1 151.6C43 151.6 37.2 145.8 37.2 138.7S43 125.8 50.1 125.8 63 131.6 63 138.7C63.1 145.8 57.3 151.6 50.1 151.6" fill="#336a86" data-fill-palette-color="accent"></path><path d="M221.2 168.6H182.6C181.7 168.6 180.9 169.1 180.5 169.8L169.1 189.2H110.9C109.7 180.5 102.3 173.8 93.3 173.8 83.5 173.8 75.5 181.8 75.5 191.6S83.5 209.4 93.3 209.4C102.3 209.4 109.7 202.7 110.9 194H170.5C171.4 194 172.2 193.5 172.6 192.8L184 173.4H221.2C222.5 173.4 223.6 172.3 223.6 171S222.5 168.6 221.2 168.6M93.3 204.6C86.2 204.6 80.4 198.8 80.4 191.7S86.2 178.8 93.3 178.8 106.2 184.6 106.2 191.7C106.3 198.8 100.5 204.6 93.3 204.6" fill="#336a86" data-fill-palette-color="accent"></path></g></svg></g></svg></g></svg></g><defs></defs></svg><rect width="395.52" height="61.835188138577806" fill="none" stroke="none" visibility="hidden"></rect></g></svg></g></svg>